<?xml version="1.0" encoding="utf-8"?>
<!-- Generator: Adobe Illustrator 23.0.5, SVG Export Plug-In . SVG Version: 6.00 Build 0)  -->
<svg version="1.1" id="Layer_1" xmlns="http://www.w3.org/2000/svg" xmlns:xlink="http://www.w3.org/1999/xlink" x="0px" y="0px"
	 viewBox="0 0 841.9 172" style="enable-background:new 0 0 841.9 172;" xml:space="preserve">
<style type="text/css">
	.st0{enable-background:new    ;}
	.st1{fill:#FFFFFF;}
</style>
<g>
	<g>
		<g class="st0">
			<path class="st1" d="M216.1,66.5c0-16,0-18.9-0.2-22.3c-0.2-3.6-1.1-5.3-4.5-6c-0.8-0.2-2.6-0.3-4.1-0.3c-1.2,0-1.8-0.2-1.8-0.9
				c0-0.7,0.7-0.9,2.3-0.9c2.8,0,5.9,0.1,8.5,0.1c2.7,0.1,5.1,0.2,6.6,0.2c3.4,0,24.3,0,26.3-0.1c2-0.2,3.7-0.4,4.5-0.6
				c0.5-0.1,1.2-0.4,1.7-0.4s0.6,0.4,0.6,0.9c0,0.7-0.5,2-0.8,6.8c-0.1,1.1-0.3,5.7-0.5,6.9c-0.1,0.5-0.3,1.2-1.1,1.2
				s-0.9-0.5-0.9-1.5c0-0.7-0.1-2.5-0.6-3.8c-0.7-1.9-1.8-3.2-7-3.8c-1.8-0.2-12.8-0.4-14.9-0.4c-0.5,0-0.7,0.3-0.7,1.1v26.6
				c0,0.7,0.1,1.2,0.7,1.2c2.3,0,14.4,0,16.8-0.2c2.5-0.2,4.1-0.5,5-1.6c0.7-0.8,1.2-1.4,1.7-1.4c0.4,0,0.7,0.2,0.7,0.8
				s-0.4,2.3-0.8,7.7c-0.1,2.1-0.4,6.3-0.4,7c0,0.8,0,2-0.9,2c-0.7,0-0.9-0.4-0.9-0.9c-0.1-1.1-0.1-2.4-0.4-3.8
				c-0.5-2.1-2-3.7-5.9-4.1c-2-0.2-12.4-0.3-14.9-0.3c-0.5,0-0.6,0.4-0.6,1.1V85c0,3.6-0.1,13.2,0,16.3c0.2,7.3,1.9,8.8,12.6,8.8
				c2.7,0,7.1,0,9.9-1.3c2.7-1.3,4-3.5,4.7-7.8c0.2-1.2,0.4-1.6,1.2-1.6c0.8,0,0.8,0.8,0.8,1.9c0,2.4-0.8,9.6-1.4,11.7
				c-0.7,2.7-1.7,2.7-5.7,2.7c-7.9,0-13.7-0.2-18.2-0.3c-4.5-0.2-7.8-0.3-10.9-0.3c-1.2,0-3.5,0-6,0.1c-2.4,0-5.1,0.2-7.3,0.2
				c-1.4,0-2.1-0.3-2.1-1.1c0-0.5,0.4-0.8,1.7-0.8c1.6,0,2.8-0.2,3.8-0.4c2.1-0.4,2.6-2.7,3-5.8c0.5-4.4,0.5-12.7,0.5-22.4V66.5z"/>
			<path class="st1" d="M300.2,101.2c0.2,8.2,1.6,10.9,3.7,11.7c1.8,0.6,3.8,0.7,5.5,0.7c1.2,0,1.8,0.2,1.8,0.8
				c0,0.8-0.9,1.1-2.4,1.1c-6.8,0-11-0.3-13-0.3c-0.9,0-5.9,0.3-11.3,0.3c-1.4,0-2.3-0.1-2.3-1.1c0-0.6,0.6-0.8,1.7-0.8
				c1.4,0,3.3-0.1,4.7-0.5c2.7-0.8,3.2-3.9,3.3-13l0.9-62.2c0-2.1,0.3-3.6,1.4-3.6c1.2,0,2.1,1.4,3.9,3.3
				c1.3,1.4,17.2,18.5,32.6,33.7c7.1,7.1,21.3,22.3,23.1,24h0.5L353,48c-0.1-6.4-1.1-8.4-3.6-9.5c-1.6-0.6-4.1-0.6-5.6-0.6
				c-1.3,0-1.7-0.3-1.7-0.9c0-0.8,1.2-0.9,2.7-0.9c5.5,0,10.5,0.3,12.7,0.3c1.2,0,5.1-0.3,10.3-0.3c1.4,0,2.4,0.1,2.4,0.9
				c0,0.6-0.6,0.9-1.9,0.9c-1.1,0-1.9,0-3.2,0.3c-2.9,0.8-3.8,3-3.9,8.9l-1.2,66.3c0,2.3-0.4,3.3-1.4,3.3c-1.2,0-2.4-1.2-3.6-2.3
				c-6.6-6.3-20.1-20.1-31-30.9c-11.5-11.3-23.1-24.5-25-26.5H299L300.2,101.2z"/>
			<path class="st1" d="M390.5,66.5c0-16,0-18.9-0.2-22.3c-0.2-3.6-1.1-5.3-4.5-6c-0.8-0.2-2.6-0.3-4.1-0.3c-1.2,0-1.8-0.2-1.8-0.9
				c0-0.7,0.7-0.9,2.3-0.9c5.6,0,12.2,0.3,15.1,0.3c3.3,0,9.9-0.3,16.2-0.3c13.1,0,30.7,0,42.1,12c5.3,5.5,10.2,14.2,10.2,26.7
				c0,13.2-5.6,23.3-11.5,29.3c-4.8,4.9-15.8,12.4-35.2,12.4c-3.8,0-8.1-0.3-12.1-0.6c-4-0.3-7.7-0.6-10.3-0.6c-1.2,0-3.5,0-6,0.1
				c-2.4,0-5.1,0.2-7.3,0.2c-1.4,0-2.1-0.3-2.1-1.1c0-0.5,0.4-0.8,1.7-0.8c1.6,0,2.8-0.2,3.8-0.4c2.1-0.4,2.6-2.7,3-5.8
				c0.5-4.4,0.5-12.7,0.5-22.4V66.5z M403.6,78c0,11.7,0,16.7,0.2,21.2c0.1,2.6,0.3,6.8,1.2,8c1.4,2,5.5,4.2,13.8,4.2
				c10.7,0,17.9-2.1,24.2-7.6c6.7-5.8,8.8-15.3,8.8-26.2c0-13.3-5.6-22-10.1-26.3c-9.7-9.2-21.6-10.5-29.8-10.5
				c-2.1,0-6,0.3-6.8,0.7c-0.9,0.4-1.3,0.9-1.3,2.1c-0.1,3.6-0.1,12.7-0.1,21V78z"/>
			<path class="st1" d="M480.5,66.5c0-16,0-18.9-0.2-22.3c-0.2-3.6-1.3-5.4-3.6-5.9c-1.2-0.3-2.5-0.4-3.8-0.4
				c-1.1,0-1.7-0.2-1.7-1.1c0-0.6,0.8-0.8,2.5-0.8c4,0,10.6,0.3,13.7,0.3c2.6,0,8.8-0.3,12.8-0.3c1.4,0,2.2,0.2,2.2,0.8
				c0,0.8-0.6,1.1-1.7,1.1s-1.9,0.1-3.2,0.3c-2.8,0.5-3.7,2.3-3.9,6c-0.2,3.4-0.2,6.3-0.2,22.3V85c0,10.2,0,18.5,0.4,23
				c0.3,2.8,1.1,4.7,4.2,5.1c1.5,0.2,3.8,0.4,5.4,0.4c1.2,0,1.7,0.3,1.7,0.8c0,0.7-0.8,1.1-2,1.1c-6.9,0-13.6-0.3-16.4-0.3
				c-2.4,0-9,0.3-13.2,0.3c-1.4,0-2.1-0.3-2.1-1.1c0-0.5,0.4-0.8,1.7-0.8c1.6,0,2.8-0.2,3.8-0.4c2.1-0.4,2.7-2.2,3-5.3
				c0.5-4.4,0.5-12.7,0.5-22.9V66.5z"/>
			<path class="st1" d="M546,88c-0.5,0-0.7,0.2-0.9,0.8l-5.7,15c-1.1,2.6-1.6,5.1-1.6,6.4c0,1.9,0.9,3.3,4.2,3.3h1.6
				c1.3,0,1.6,0.2,1.6,0.8c0,0.8-0.6,1.1-1.8,1.1c-3.4,0-7.9-0.3-11.1-0.3c-1.2,0-6.9,0.3-12.4,0.3c-1.4,0-2-0.2-2-1.1
				c0-0.6,0.4-0.8,1.3-0.8c0.9,0,2.4-0.1,3.3-0.2c4.8-0.6,6.8-4.2,8.9-9.5l26.4-66c1.3-3,1.9-4.2,2.9-4.2c0.9,0,1.6,0.9,2.6,3.4
				c2.5,5.8,19.3,48.7,26.1,64.6c4,9.5,7,10.9,9.2,11.5c1.6,0.3,3.2,0.4,4.4,0.4c0.8,0,1.4,0.1,1.4,0.8c0,0.8-0.9,1.1-4.8,1.1
				c-3.8,0-11.5,0-19.9-0.2c-1.9-0.1-3.2-0.1-3.2-0.8c0-0.6,0.4-0.8,1.5-0.9c0.7-0.2,1.5-1.2,0.9-2.4l-8.4-22.3
				c-0.2-0.5-0.5-0.7-1.1-0.7H546z M567.4,82.8c0.5,0,0.6-0.3,0.5-0.6l-9.5-26c-0.1-0.4-0.2-0.9-0.5-0.9s-0.5,0.5-0.6,0.9L547.6,82
				c-0.1,0.4,0,0.7,0.4,0.7H567.4z"/>
			<path class="st1" d="M633,36.4c0.3-1.8,0.9-2.7,1.8-2.7s1.5,0.5,2.8,3.3l28.7,59.3l28.6-60c0.8-1.7,1.4-2.5,2.3-2.5
				c0.9,0,1.6,1.1,1.9,3.3l9.6,64.9c0.9,6.6,2,9.7,5.1,10.6c3,0.9,5.1,1.1,6.5,1.1c0.9,0,1.7,0.1,1.7,0.7c0,0.8-1.3,1.2-2.7,1.2
				c-2.6,0-17.1-0.3-21.3-0.6c-2.4-0.2-3-0.5-3-1.2c0-0.5,0.4-0.8,1.2-1.2c0.6-0.2,0.9-1.6,0.5-4.5l-6.3-46.2h-0.4L667,109.5
				c-2.4,4.9-2.9,5.9-3.9,5.9c-0.9,0-2-2.1-3.7-5.3c-2.5-4.8-10.8-20.9-12.1-23.9c-0.9-2.2-7.3-15.4-10.9-23.3H636l-5.5,41.8
				c-0.2,1.9-0.3,3.3-0.3,4.9c0,2,1.4,2.9,3.2,3.4c1.9,0.4,3.4,0.5,4.4,0.5c0.8,0,1.6,0.2,1.6,0.7c0,0.9-0.9,1.2-2.5,1.2
				c-4.4,0-9.1-0.3-11-0.3c-2,0-7,0.3-10.4,0.3c-1.1,0-1.9-0.2-1.9-1.2c0-0.5,0.6-0.7,1.7-0.7c0.8,0,1.6,0,3.2-0.3
				c2.9-0.6,3.8-4.7,4.3-8.3L633,36.4z"/>
			<path class="st1" d="M758.7,88c-0.5,0-0.7,0.2-0.9,0.8l-5.7,15c-1.1,2.6-1.6,5.1-1.6,6.4c0,1.9,0.9,3.3,4.2,3.3h1.6
				c1.3,0,1.6,0.2,1.6,0.8c0,0.8-0.6,1.1-1.8,1.1c-3.4,0-7.9-0.3-11.1-0.3c-1.2,0-6.9,0.3-12.4,0.3c-1.4,0-2-0.2-2-1.1
				c0-0.6,0.4-0.8,1.3-0.8c0.9,0,2.4-0.1,3.3-0.2c4.8-0.6,6.8-4.2,8.9-9.5l26.4-66c1.3-3,1.9-4.2,2.9-4.2c0.9,0,1.6,0.9,2.6,3.4
				c2.5,5.8,19.3,48.7,26.1,64.6c4,9.5,7,10.9,9.2,11.5c1.6,0.3,3.2,0.4,4.4,0.4c0.8,0,1.4,0.1,1.4,0.8c0,0.8-0.9,1.1-4.8,1.1
				c-3.8,0-11.5,0-19.9-0.2c-1.9-0.1-3.2-0.1-3.2-0.8c0-0.6,0.4-0.8,1.5-0.9c0.7-0.2,1.5-1.2,0.9-2.4l-8.4-22.3
				c-0.2-0.5-0.5-0.7-1.1-0.7H758.7z M780.2,82.8c0.5,0,0.6-0.3,0.5-0.6l-9.5-26c-0.1-0.4-0.2-0.9-0.5-0.9s-0.5,0.5-0.6,0.9
				L760.4,82c-0.1,0.4,0,0.7,0.4,0.7H780.2z"/>
		</g>
	</g>
	<g class="st0">
		<path class="st1" d="M212.1,146.7c0-3.2,0-3.8,0-4.5c0-0.7-0.2-1.1-0.9-1.2c-0.2,0-0.5-0.1-0.8-0.1c-0.2,0-0.4,0-0.4-0.2
			s0.1-0.2,0.5-0.2c0.6,0,1.2,0,1.7,0c0.5,0,1,0,1.3,0c0.7,0,4.9,0,5.2,0c0.4,0,0.7-0.1,0.9-0.1c0.1,0,0.2-0.1,0.3-0.1
			s0.1,0.1,0.1,0.2c0,0.1-0.1,0.4-0.2,1.4c0,0.2-0.1,1.1-0.1,1.4c0,0.1-0.1,0.2-0.2,0.2s-0.2-0.1-0.2-0.3c0-0.1,0-0.5-0.1-0.8
			c-0.1-0.4-0.4-0.6-1.4-0.8c-0.4,0-2.6-0.1-3-0.1c-0.1,0-0.1,0.1-0.1,0.2v5.3c0,0.1,0,0.2,0.1,0.2c0.5,0,2.9,0,3.4,0
			c0.5,0,0.8-0.1,1-0.3c0.1-0.2,0.2-0.3,0.3-0.3c0.1,0,0.1,0,0.1,0.2s-0.1,0.5-0.2,1.5c0,0.4-0.1,1.3-0.1,1.4c0,0.2,0,0.4-0.2,0.4
			c-0.1,0-0.2-0.1-0.2-0.2c0-0.2,0-0.5-0.1-0.8c-0.1-0.4-0.4-0.7-1.2-0.8c-0.4,0-2.5-0.1-3-0.1c-0.1,0-0.1,0.1-0.1,0.2v1.7
			c0,0.7,0,2.6,0,3.3c0,1.4,0.4,1.8,2.5,1.8c0.5,0,1.4,0,2-0.3s0.8-0.7,0.9-1.6c0-0.2,0.1-0.3,0.2-0.3c0.2,0,0.2,0.2,0.2,0.4
			c0,0.5-0.2,1.9-0.3,2.3c-0.1,0.5-0.3,0.5-1.1,0.5c-1.6,0-2.7,0-3.6-0.1c-0.9,0-1.6-0.1-2.2-0.1c-0.2,0-0.7,0-1.2,0
			c-0.5,0-1,0-1.4,0c-0.3,0-0.4-0.1-0.4-0.2c0-0.1,0.1-0.2,0.3-0.2c0.3,0,0.6,0,0.8-0.1c0.4-0.1,0.5-0.5,0.6-1.2
			c0.1-0.9,0.1-2.5,0.1-4.5V146.7z"/>
		<path class="st1" d="M226.1,140.7c0.1-0.4,0.2-0.5,0.4-0.5s0.3,0.1,0.6,0.7l5.7,11.8l5.7-12c0.2-0.3,0.3-0.5,0.5-0.5
			s0.3,0.2,0.4,0.7l1.9,13c0.2,1.3,0.4,1.9,1,2.1c0.6,0.2,1,0.2,1.3,0.2c0.2,0,0.3,0,0.3,0.1c0,0.2-0.3,0.2-0.5,0.2
			c-0.5,0-3.4-0.1-4.3-0.1c-0.5,0-0.6-0.1-0.6-0.2c0-0.1,0.1-0.2,0.2-0.2c0.1,0,0.2-0.3,0.1-0.9l-1.3-9.2h-0.1l-4.6,9.5
			c-0.5,1-0.6,1.2-0.8,1.2s-0.4-0.4-0.7-1c-0.5-1-2.2-4.2-2.4-4.8c-0.2-0.4-1.4-3.1-2.2-4.7h-0.1l-1.1,8.4c0,0.4-0.1,0.7-0.1,1
			c0,0.4,0.3,0.6,0.6,0.7c0.4,0.1,0.7,0.1,0.9,0.1c0.2,0,0.3,0,0.3,0.1c0,0.2-0.2,0.2-0.5,0.2c-0.9,0-1.8-0.1-2.2-0.1
			c-0.4,0-1.4,0.1-2.1,0.1c-0.2,0-0.4,0-0.4-0.2c0-0.1,0.1-0.1,0.3-0.1c0.2,0,0.3,0,0.6-0.1c0.6-0.1,0.8-0.9,0.9-1.7L226.1,140.7z"
			/>
		<path class="st1" d="M247.3,146.7c0-3.2,0-3.8,0-4.5c0-0.7-0.2-1.1-0.9-1.2c-0.2,0-0.5-0.1-0.8-0.1c-0.2,0-0.4,0-0.4-0.2
			s0.1-0.2,0.5-0.2c1.1,0,2.4,0.1,3,0.1c0.9,0,2.1-0.1,3-0.1c2.6,0,3.6,0.9,3.9,1.2c0.5,0.4,1,1.4,1,2.5c0,3-2.2,5.1-5.2,5.1
			c-0.1,0-0.3,0-0.4,0s-0.3,0-0.3-0.2c0-0.2,0.1-0.2,0.6-0.2c1.2,0,2.8-1.3,2.8-3.5c0-0.7-0.1-2.1-1.2-3.1c-0.8-0.7-1.6-0.8-2.1-0.8
			c-0.3,0-0.6,0-0.8,0.1c-0.1,0-0.2,0.2-0.2,0.4v8.4c0,1.9,0,3.6,0.1,4.5c0.1,0.6,0.2,1.1,0.8,1.1c0.3,0,0.8,0.1,1.1,0.1
			c0.2,0,0.3,0.1,0.3,0.2c0,0.1-0.2,0.2-0.4,0.2c-1.4,0-2.7-0.1-3.3-0.1c-0.5,0-1.8,0.1-2.6,0.1c-0.3,0-0.4-0.1-0.4-0.2
			c0-0.1,0.1-0.2,0.3-0.2c0.3,0,0.6,0,0.8-0.1c0.4-0.1,0.5-0.5,0.6-1.2c0.1-0.9,0.1-2.5,0.1-4.5V146.7z"/>
		<path class="st1" d="M261,146.7c0-3.2,0-3.8,0-4.5c0-0.7-0.2-1.1-0.9-1.2c-0.2,0-0.5-0.1-0.8-0.1c-0.2,0-0.4,0-0.4-0.2
			s0.1-0.2,0.5-0.2c1.1,0,2.4,0.1,2.9,0.1c0.7,0,2.3-0.1,3-0.1c1.3,0,2.7,0.1,3.9,0.9c0.6,0.4,1.4,1.5,1.4,2.9c0,1.6-0.7,3-2.8,4.7
			c1.9,2.4,3.3,4.2,4.6,5.5c1.2,1.2,2,1.4,2.4,1.4c0.2,0,0.4,0.1,0.6,0.1s0.3,0.1,0.3,0.2c0,0.2-0.1,0.2-0.4,0.2h-2
			c-1.2,0-1.7-0.1-2.2-0.4c-0.9-0.5-1.7-1.5-2.9-3.1c-0.8-1.2-1.8-2.6-2.1-2.9c-0.1-0.1-0.2-0.1-0.4-0.1l-1.8,0
			c-0.1,0-0.2,0-0.2,0.2v0.3c0,2,0,3.6,0.1,4.5c0.1,0.6,0.2,1.1,0.8,1.2c0.3,0,0.8,0.1,1,0.1c0.2,0,0.3,0.1,0.3,0.2
			c0,0.1-0.1,0.2-0.4,0.2c-1.2,0-2.8-0.1-3.1-0.1c-0.4,0-1.7,0.1-2.6,0.1c-0.3,0-0.4-0.1-0.4-0.2c0-0.1,0.1-0.2,0.3-0.2
			c0.3,0,0.6,0,0.8-0.1c0.4-0.1,0.5-0.5,0.6-1.2c0.1-0.9,0.1-2.5,0.1-4.5V146.7z M263.5,148.4c0,0.2,0,0.3,0.2,0.4
			c0.4,0.1,1.1,0.2,1.6,0.2c0.8,0,1.1-0.1,1.5-0.4c0.6-0.5,1.2-1.4,1.2-3.1c0-3-2-3.8-3.2-3.8c-0.5,0-0.9,0-1.1,0.1
			c-0.1,0-0.2,0.1-0.2,0.3V148.4z"/>
		<path class="st1" d="M276.9,146.7c0-3.2,0-3.8,0-4.5c0-0.7-0.2-1.1-0.9-1.2c-0.2,0-0.5-0.1-0.8-0.1c-0.2,0-0.4,0-0.4-0.2
			s0.1-0.2,0.5-0.2c0.6,0,1.2,0,1.7,0c0.5,0,1,0,1.3,0c0.7,0,4.9,0,5.2,0c0.4,0,0.7-0.1,0.9-0.1c0.1,0,0.2-0.1,0.3-0.1
			s0.1,0.1,0.1,0.2c0,0.1-0.1,0.4-0.2,1.4c0,0.2-0.1,1.1-0.1,1.4c0,0.1-0.1,0.2-0.2,0.2s-0.2-0.1-0.2-0.3c0-0.1,0-0.5-0.1-0.8
			c-0.1-0.4-0.4-0.6-1.4-0.8c-0.4,0-2.6-0.1-3-0.1c-0.1,0-0.1,0.1-0.1,0.2v5.3c0,0.1,0,0.2,0.1,0.2c0.5,0,2.9,0,3.4,0
			c0.5,0,0.8-0.1,1-0.3c0.1-0.2,0.2-0.3,0.3-0.3c0.1,0,0.1,0,0.1,0.2s-0.1,0.5-0.2,1.5c0,0.4-0.1,1.3-0.1,1.4c0,0.2,0,0.4-0.2,0.4
			c-0.1,0-0.2-0.1-0.2-0.2c0-0.2,0-0.5-0.1-0.8c-0.1-0.4-0.4-0.7-1.2-0.8c-0.4,0-2.5-0.1-3-0.1c-0.1,0-0.1,0.1-0.1,0.2v1.7
			c0,0.7,0,2.6,0,3.3c0,1.4,0.4,1.8,2.5,1.8c0.5,0,1.4,0,2-0.3s0.8-0.7,0.9-1.6c0-0.2,0.1-0.3,0.2-0.3c0.2,0,0.2,0.2,0.2,0.4
			c0,0.5-0.2,1.9-0.3,2.3c-0.1,0.5-0.3,0.5-1.1,0.5c-1.6,0-2.7,0-3.6-0.1c-0.9,0-1.6-0.1-2.2-0.1c-0.2,0-0.7,0-1.2,0
			c-0.5,0-1,0-1.4,0c-0.3,0-0.4-0.1-0.4-0.2c0-0.1,0.1-0.2,0.3-0.2c0.3,0,0.6,0,0.8-0.1c0.4-0.1,0.5-0.5,0.6-1.2
			c0.1-0.9,0.1-2.5,0.1-4.5V146.7z"/>
		<path class="st1" d="M289,156.2c-0.3-0.1-0.4-0.3-0.4-0.7c0-1.2,0.1-2.4,0.1-2.8c0-0.3,0.1-0.5,0.3-0.5c0.2,0,0.2,0.2,0.2,0.4
			c0,0.3,0.1,0.7,0.2,1.1c0.5,1.6,1.7,2.1,3,2.1c1.9,0,2.8-1.3,2.8-2.4c0-1-0.3-2-2.1-3.4l-1-0.8c-2.3-1.8-3.1-3.3-3.1-5
			c0-2.3,1.9-4,4.9-4c1.4,0,2.2,0.2,2.8,0.4c0.2,0,0.3,0.1,0.3,0.3c0,0.3-0.1,0.9-0.1,2.5c0,0.5-0.1,0.6-0.2,0.6
			c-0.1,0-0.2-0.1-0.2-0.4c0-0.2-0.1-0.8-0.5-1.4c-0.3-0.4-0.9-1-2.3-1c-1.6,0-2.5,0.9-2.5,2.2c0,1,0.5,1.7,2.2,3l0.6,0.4
			c2.5,1.9,3.4,3.4,3.4,5.4c0,1.2-0.5,2.7-2,3.7c-1,0.7-2.2,0.9-3.3,0.9C290.8,156.8,289.9,156.6,289,156.2z"/>
		<path class="st1" d="M303.2,151c-0.1,0-0.1,0-0.2,0.2l-1.1,3c-0.2,0.5-0.3,1-0.3,1.3c0,0.4,0.2,0.7,0.8,0.7h0.3
			c0.3,0,0.3,0,0.3,0.2c0,0.2-0.1,0.2-0.4,0.2c-0.7,0-1.6-0.1-2.2-0.1c-0.2,0-1.4,0.1-2.5,0.1c-0.3,0-0.4,0-0.4-0.2
			c0-0.1,0.1-0.2,0.3-0.2c0.2,0,0.5,0,0.7,0c1-0.1,1.4-0.8,1.8-1.9l5.3-13.2c0.3-0.6,0.4-0.8,0.6-0.8c0.2,0,0.3,0.2,0.5,0.7
			c0.5,1.2,3.9,9.7,5.2,12.9c0.8,1.9,1.4,2.2,1.8,2.3c0.3,0.1,0.6,0.1,0.9,0.1c0.2,0,0.3,0,0.3,0.2c0,0.2-0.2,0.2-1,0.2
			c-0.8,0-2.3,0-4,0c-0.4,0-0.6,0-0.6-0.2c0-0.1,0.1-0.2,0.3-0.2c0.1,0,0.3-0.2,0.2-0.5l-1.7-4.5c0-0.1-0.1-0.1-0.2-0.1H303.2z
			 M307.5,150c0.1,0,0.1-0.1,0.1-0.1l-1.9-5.2c0-0.1,0-0.2-0.1-0.2s-0.1,0.1-0.1,0.2l-1.9,5.2c0,0.1,0,0.1,0.1,0.1H307.5z"/>
		<path class="st1" d="M324.5,153.6c0,1.6,0.3,2.2,0.7,2.3c0.4,0.1,0.8,0.1,1.1,0.1c0.2,0,0.4,0,0.4,0.2c0,0.2-0.2,0.2-0.5,0.2
			c-1.4,0-2.2-0.1-2.6-0.1c-0.2,0-1.2,0.1-2.3,0.1c-0.3,0-0.5,0-0.5-0.2c0-0.1,0.1-0.2,0.3-0.2c0.3,0,0.7,0,0.9-0.1
			c0.5-0.2,0.6-0.8,0.7-2.6L323,141c0-0.4,0.1-0.7,0.3-0.7c0.2,0,0.4,0.3,0.8,0.7c0.3,0.3,3.4,3.7,6.5,6.7c1.4,1.4,4.3,4.5,4.6,4.8
			h0.1l-0.2-9.4c0-1.3-0.2-1.7-0.7-1.9c-0.3-0.1-0.8-0.1-1.1-0.1c-0.3,0-0.3-0.1-0.3-0.2c0-0.2,0.2-0.2,0.5-0.2
			c1.1,0,2.1,0.1,2.5,0.1c0.2,0,1-0.1,2.1-0.1c0.3,0,0.5,0,0.5,0.2c0,0.1-0.1,0.2-0.4,0.2c-0.2,0-0.4,0-0.6,0.1
			c-0.6,0.2-0.8,0.6-0.8,1.8l-0.2,13.2c0,0.5-0.1,0.7-0.3,0.7c-0.2,0-0.5-0.2-0.7-0.5c-1.3-1.3-4-4-6.2-6.2c-2.3-2.3-4.6-4.9-5-5.3
			h-0.1L324.5,153.6z"/>
		<path class="st1" d="M344.1,151c-0.1,0-0.1,0-0.2,0.2l-1.1,3c-0.2,0.5-0.3,1-0.3,1.3c0,0.4,0.2,0.7,0.8,0.7h0.3
			c0.3,0,0.3,0,0.3,0.2c0,0.2-0.1,0.2-0.4,0.2c-0.7,0-1.6-0.1-2.2-0.1c-0.2,0-1.4,0.1-2.5,0.1c-0.3,0-0.4,0-0.4-0.2
			c0-0.1,0.1-0.2,0.3-0.2c0.2,0,0.5,0,0.7,0c1-0.1,1.4-0.8,1.8-1.9l5.3-13.2c0.3-0.6,0.4-0.8,0.6-0.8c0.2,0,0.3,0.2,0.5,0.7
			c0.5,1.2,3.9,9.7,5.2,12.9c0.8,1.9,1.4,2.2,1.8,2.3c0.3,0.1,0.6,0.1,0.9,0.1c0.2,0,0.3,0,0.3,0.2c0,0.2-0.2,0.2-1,0.2
			c-0.8,0-2.3,0-4,0c-0.4,0-0.6,0-0.6-0.2c0-0.1,0.1-0.2,0.3-0.2c0.1,0,0.3-0.2,0.2-0.5l-1.7-4.5c0-0.1-0.1-0.1-0.2-0.1H344.1z
			 M348.4,150c0.1,0,0.1-0.1,0.1-0.1l-1.9-5.2c0-0.1,0-0.2-0.1-0.2s-0.1,0.1-0.1,0.2l-1.9,5.2c0,0.1,0,0.1,0.1,0.1H348.4z"/>
		<path class="st1" d="M358.3,154.5c-2.1-1.8-2.6-4.2-2.6-6.2c0-1.4,0.4-3.9,2.5-5.8c1.5-1.4,3.5-2.2,6.6-2.2c1.3,0,2.1,0.1,3,0.2
			c0.8,0.1,1.5,0.3,2.1,0.4c0.2,0,0.3,0.1,0.3,0.3c0,0.2-0.1,0.4-0.1,1.2c0,0.7,0,1.8-0.1,2.3c0,0.3-0.1,0.5-0.3,0.5
			c-0.2,0-0.2-0.2-0.2-0.5c0-0.7-0.3-1.4-0.8-1.9c-0.7-0.7-2.3-1.3-4.3-1.3c-1.8,0-3,0.5-3.9,1.3c-1.5,1.4-1.9,3.4-1.9,5.4
			c0,5,3.8,7.5,6.6,7.5c1.9,0,3-0.2,3.8-1.2c0.4-0.4,0.6-1,0.7-1.4c0.1-0.3,0.1-0.4,0.3-0.4c0.1,0,0.2,0.1,0.2,0.3
			c0,0.3-0.3,2.1-0.5,2.8c-0.1,0.4-0.2,0.5-0.5,0.6c-0.8,0.3-2.4,0.5-3.8,0.5C362.6,156.8,360.2,156.1,358.3,154.5z"/>
		<path class="st1" d="M374.7,146.7c0-3.2,0-3.8,0-4.5c0-0.7-0.3-1.1-0.7-1.2c-0.2-0.1-0.5-0.1-0.8-0.1c-0.2,0-0.3,0-0.3-0.2
			c0-0.1,0.2-0.2,0.5-0.2c0.8,0,2.1,0.1,2.7,0.1c0.5,0,1.8-0.1,2.6-0.1c0.3,0,0.4,0,0.4,0.2c0,0.2-0.1,0.2-0.3,0.2s-0.4,0-0.6,0.1
			c-0.6,0.1-0.7,0.5-0.8,1.2c0,0.7,0,1.3,0,4.5v3.7c0,2,0,3.7,0.1,4.6c0.1,0.6,0.2,0.9,0.8,1c0.3,0,0.8,0.1,1.1,0.1
			c0.2,0,0.3,0.1,0.3,0.2c0,0.1-0.2,0.2-0.4,0.2c-1.4,0-2.7-0.1-3.3-0.1c-0.5,0-1.8,0.1-2.6,0.1c-0.3,0-0.4-0.1-0.4-0.2
			c0-0.1,0.1-0.2,0.3-0.2c0.3,0,0.6,0,0.8-0.1c0.4-0.1,0.5-0.4,0.6-1.1c0.1-0.9,0.1-2.5,0.1-4.6V146.7z"/>
		<path class="st1" d="M381.7,148.5c0-3.6,2.4-8.2,8.7-8.2c5.2,0,8.5,3,8.5,7.9c0,4.8-3.4,8.6-8.7,8.6
			C384.2,156.8,381.7,152.3,381.7,148.5z M396,148.9c0-4.7-2.7-7.6-6.2-7.6c-2.4,0-5.2,1.3-5.2,6.6c0,4.4,2.4,7.8,6.4,7.8
			C392.6,155.7,396,155,396,148.9z"/>
		<path class="st1" d="M404.5,153.6c0,1.6,0.3,2.2,0.7,2.3c0.4,0.1,0.8,0.1,1.1,0.1c0.2,0,0.4,0,0.4,0.2c0,0.2-0.2,0.2-0.5,0.2
			c-1.4,0-2.2-0.1-2.6-0.1c-0.2,0-1.2,0.1-2.3,0.1c-0.3,0-0.5,0-0.5-0.2c0-0.1,0.1-0.2,0.3-0.2c0.3,0,0.7,0,0.9-0.1
			c0.5-0.2,0.6-0.8,0.7-2.6l0.2-12.4c0-0.4,0.1-0.7,0.3-0.7c0.2,0,0.4,0.3,0.8,0.7c0.3,0.3,3.4,3.7,6.5,6.7c1.4,1.4,4.3,4.5,4.6,4.8
			h0.1L415,143c0-1.3-0.2-1.7-0.7-1.9c-0.3-0.1-0.8-0.1-1.1-0.1c-0.3,0-0.3-0.1-0.3-0.2c0-0.2,0.2-0.2,0.5-0.2
			c1.1,0,2.1,0.1,2.5,0.1c0.2,0,1-0.1,2.1-0.1c0.3,0,0.5,0,0.5,0.2c0,0.1-0.1,0.2-0.4,0.2c-0.2,0-0.4,0-0.6,0.1
			c-0.6,0.2-0.8,0.6-0.8,1.8l-0.2,13.2c0,0.5-0.1,0.7-0.3,0.7c-0.2,0-0.5-0.2-0.7-0.5c-1.3-1.3-4-4-6.2-6.2c-2.3-2.3-4.6-4.9-5-5.3
			h-0.1L404.5,153.6z"/>
		<path class="st1" d="M424,151c-0.1,0-0.1,0-0.2,0.2l-1.1,3c-0.2,0.5-0.3,1-0.3,1.3c0,0.4,0.2,0.7,0.8,0.7h0.3c0.3,0,0.3,0,0.3,0.2
			c0,0.2-0.1,0.2-0.4,0.2c-0.7,0-1.6-0.1-2.2-0.1c-0.2,0-1.4,0.1-2.5,0.1c-0.3,0-0.4,0-0.4-0.2c0-0.1,0.1-0.2,0.3-0.2
			c0.2,0,0.5,0,0.7,0c1-0.1,1.4-0.8,1.8-1.9l5.3-13.2c0.3-0.6,0.4-0.8,0.6-0.8c0.2,0,0.3,0.2,0.5,0.7c0.5,1.2,3.9,9.7,5.2,12.9
			c0.8,1.9,1.4,2.2,1.8,2.3c0.3,0.1,0.6,0.1,0.9,0.1c0.2,0,0.3,0,0.3,0.2c0,0.2-0.2,0.2-1,0.2c-0.8,0-2.3,0-4,0
			c-0.4,0-0.6,0-0.6-0.2c0-0.1,0.1-0.2,0.3-0.2c0.1,0,0.3-0.2,0.2-0.5l-1.7-4.5c0-0.1-0.1-0.1-0.2-0.1H424z M428.3,150
			c0.1,0,0.1-0.1,0.1-0.1l-1.9-5.2c0-0.1,0-0.2-0.1-0.2c-0.1,0-0.1,0.1-0.1,0.2l-1.9,5.2c0,0.1,0,0.1,0.1,0.1H428.3z"/>
		<path class="st1" d="M440.5,150.4c0,2.7,0,4.1,0.4,4.5c0.4,0.3,0.9,0.5,2.5,0.5c1.1,0,1.9,0,2.5-0.6c0.3-0.3,0.5-0.9,0.5-1.3
			c0-0.2,0.1-0.3,0.2-0.3c0.1,0,0.2,0.1,0.2,0.4c0,0.2-0.1,1.8-0.3,2.4c-0.1,0.5-0.2,0.6-1.3,0.6c-1.5,0-2.6,0-3.5-0.1
			c-0.9,0-1.7-0.1-2.6-0.1c-0.2,0-0.7,0-1.2,0c-0.5,0-1,0-1.4,0c-0.3,0-0.4-0.1-0.4-0.2c0-0.1,0.1-0.2,0.3-0.2c0.3,0,0.6,0,0.8-0.1
			c0.4-0.1,0.5-0.5,0.6-1.2c0.1-0.9,0.1-2.5,0.1-4.5v-3.7c0-3.2,0-3.8,0-4.5c0-0.7-0.2-1.1-0.9-1.2c-0.2,0-0.4-0.1-0.7-0.1
			c-0.2,0-0.4,0-0.4-0.2s0.1-0.2,0.5-0.2c1,0,2.3,0.1,2.9,0.1c0.5,0,2-0.1,2.9-0.1c0.3,0,0.4,0,0.4,0.2s-0.1,0.2-0.4,0.2
			c-0.2,0-0.6,0-0.8,0.1c-0.6,0.1-0.7,0.5-0.8,1.2c0,0.7,0,1.3,0,4.5V150.4z"/>
		<path class="st1" d="M456.9,146.7c0-3.2,0-3.8,0-4.5c0-0.7-0.2-1.1-0.9-1.2c-0.2,0-0.5-0.1-0.8-0.1c-0.2,0-0.4,0-0.4-0.2
			s0.1-0.2,0.5-0.2c1.1,0,2.4,0.1,3,0.1c0.7,0,2-0.1,3.2-0.1c2.6,0,6.1,0,8.4,2.4c1,1.1,2,2.8,2,5.3c0,2.6-1.1,4.7-2.3,5.9
			c-1,1-3.1,2.5-7,2.5c-0.8,0-1.6-0.1-2.4-0.1s-1.5-0.1-2.1-0.1c-0.2,0-0.7,0-1.2,0c-0.5,0-1,0-1.4,0c-0.3,0-0.4-0.1-0.4-0.2
			c0-0.1,0.1-0.2,0.3-0.2c0.3,0,0.6,0,0.8-0.1c0.4-0.1,0.5-0.5,0.6-1.2c0.1-0.9,0.1-2.5,0.1-4.5V146.7z M459.5,149
			c0,2.2,0,3.8,0,4.2c0,0.5,0.1,1.4,0.2,1.6c0.3,0.4,1.1,0.8,2.8,0.8c2.1,0,3.6-0.4,4.8-1.5c1.3-1.2,1.8-3.1,1.8-5.2
			c0-2.7-1.1-4.4-2-5.2c-1.9-1.8-4.3-2.1-6-2.1c-0.4,0-1.2,0.1-1.4,0.1c-0.2,0.1-0.3,0.2-0.3,0.4c0,0.7,0,2.5,0,4.2V149z"/>
		<path class="st1" d="M476.3,146.7c0-3.2,0-3.8,0-4.5c0-0.7-0.2-1.1-0.9-1.2c-0.2,0-0.5-0.1-0.8-0.1c-0.2,0-0.4,0-0.4-0.2
			s0.1-0.2,0.5-0.2c0.6,0,1.2,0,1.7,0c0.5,0,1,0,1.3,0c0.7,0,4.8,0,5.2,0c0.4,0,0.7-0.1,0.9-0.1c0.1,0,0.2-0.1,0.3-0.1
			c0.1,0,0.1,0.1,0.1,0.2c0,0.1-0.1,0.4-0.2,1.4c0,0.2-0.1,1.1-0.1,1.4c0,0.1-0.1,0.2-0.2,0.2c-0.1,0-0.2-0.1-0.2-0.3
			c0-0.1,0-0.5-0.1-0.8c-0.1-0.4-0.4-0.6-1.4-0.8c-0.4,0-2.6-0.1-3-0.1c-0.1,0-0.1,0.1-0.1,0.2v5.3c0,0.1,0,0.2,0.1,0.2
			c0.5,0,2.9,0,3.4,0c0.5,0,0.8-0.1,1-0.3c0.1-0.2,0.2-0.3,0.3-0.3c0.1,0,0.1,0,0.1,0.2s-0.1,0.5-0.2,1.5c0,0.4-0.1,1.3-0.1,1.4
			c0,0.2,0,0.4-0.2,0.4c-0.1,0-0.2-0.1-0.2-0.2c0-0.2,0-0.5-0.1-0.8c-0.1-0.4-0.4-0.7-1.2-0.8c-0.4,0-2.5-0.1-3-0.1
			c-0.1,0-0.1,0.1-0.1,0.2v1.7c0,0.7,0,2.6,0,3.3c0,1.4,0.4,1.8,2.5,1.8c0.5,0,1.4,0,2-0.3s0.8-0.7,0.9-1.6c0-0.2,0.1-0.3,0.2-0.3
			c0.2,0,0.2,0.2,0.2,0.4c0,0.5-0.2,1.9-0.3,2.3c-0.1,0.5-0.3,0.5-1.1,0.5c-1.6,0-2.7,0-3.6-0.1c-0.9,0-1.6-0.1-2.2-0.1
			c-0.2,0-0.7,0-1.2,0c-0.5,0-1,0-1.4,0c-0.3,0-0.4-0.1-0.4-0.2c0-0.1,0.1-0.2,0.3-0.2c0.3,0,0.6,0,0.8-0.1c0.4-0.1,0.5-0.5,0.6-1.2
			c0.1-0.9,0.1-2.5,0.1-4.5V146.7z"/>
		<path class="st1" d="M495.9,146.7c0-3.2,0-3.8,0-4.5c0-0.7-0.2-1.1-0.9-1.2c-0.2,0-0.5-0.1-0.8-0.1c-0.2,0-0.4,0-0.4-0.2
			s0.1-0.2,0.5-0.2c1.1,0,2.4,0.1,3,0.1c0.7,0,2-0.1,3.2-0.1c2.6,0,6.1,0,8.4,2.4c1,1.1,2,2.8,2,5.3c0,2.6-1.1,4.7-2.3,5.9
			c-1,1-3.1,2.5-7,2.5c-0.8,0-1.6-0.1-2.4-0.1s-1.5-0.1-2.1-0.1c-0.2,0-0.7,0-1.2,0c-0.5,0-1,0-1.4,0c-0.3,0-0.4-0.1-0.4-0.2
			c0-0.1,0.1-0.2,0.3-0.2c0.3,0,0.6,0,0.8-0.1c0.4-0.1,0.5-0.5,0.6-1.2c0.1-0.9,0.1-2.5,0.1-4.5V146.7z M498.5,149
			c0,2.2,0,3.8,0,4.2c0,0.5,0.1,1.4,0.2,1.6c0.3,0.4,1.1,0.8,2.8,0.8c2.1,0,3.6-0.4,4.8-1.5c1.3-1.2,1.8-3.1,1.8-5.2
			c0-2.7-1.1-4.4-2-5.2c-1.9-1.8-4.3-2.1-6-2.1c-0.4,0-1.2,0.1-1.4,0.1c-0.2,0.1-0.3,0.2-0.3,0.4c0,0.7,0,2.5,0,4.2V149z"/>
		<path class="st1" d="M515.3,146.7c0-3.2,0-3.8,0-4.5c0-0.7-0.3-1.1-0.7-1.2c-0.2-0.1-0.5-0.1-0.8-0.1c-0.2,0-0.3,0-0.3-0.2
			c0-0.1,0.2-0.2,0.5-0.2c0.8,0,2.1,0.1,2.7,0.1c0.5,0,1.8-0.1,2.6-0.1c0.3,0,0.4,0,0.4,0.2c0,0.2-0.1,0.2-0.3,0.2s-0.4,0-0.6,0.1
			c-0.6,0.1-0.7,0.5-0.8,1.2c0,0.7,0,1.3,0,4.5v3.7c0,2,0,3.7,0.1,4.6c0.1,0.6,0.2,0.9,0.8,1c0.3,0,0.8,0.1,1.1,0.1
			c0.2,0,0.3,0.1,0.3,0.2c0,0.1-0.2,0.2-0.4,0.2c-1.4,0-2.7-0.1-3.3-0.1c-0.5,0-1.8,0.1-2.6,0.1c-0.3,0-0.4-0.1-0.4-0.2
			c0-0.1,0.1-0.2,0.3-0.2c0.3,0,0.6,0,0.8-0.1c0.4-0.1,0.5-0.4,0.6-1.1c0.1-0.9,0.1-2.5,0.1-4.6V146.7z"/>
		<path class="st1" d="M525.7,151c-0.1,0-0.1,0-0.2,0.2l-1.1,3c-0.2,0.5-0.3,1-0.3,1.3c0,0.4,0.2,0.7,0.8,0.7h0.3
			c0.3,0,0.3,0,0.3,0.2c0,0.2-0.1,0.2-0.4,0.2c-0.7,0-1.6-0.1-2.2-0.1c-0.2,0-1.4,0.1-2.5,0.1c-0.3,0-0.4,0-0.4-0.2
			c0-0.1,0.1-0.2,0.3-0.2c0.2,0,0.5,0,0.7,0c1-0.1,1.4-0.8,1.8-1.9L528,141c0.3-0.6,0.4-0.8,0.6-0.8c0.2,0,0.3,0.2,0.5,0.7
			c0.5,1.2,3.9,9.7,5.2,12.9c0.8,1.9,1.4,2.2,1.8,2.3c0.3,0.1,0.6,0.1,0.9,0.1c0.2,0,0.3,0,0.3,0.2c0,0.2-0.2,0.2-1,0.2
			c-0.8,0-2.3,0-4,0c-0.4,0-0.6,0-0.6-0.2c0-0.1,0.1-0.2,0.3-0.2c0.1,0,0.3-0.2,0.2-0.5l-1.7-4.5c0-0.1-0.1-0.1-0.2-0.1H525.7z
			 M530,150c0.1,0,0.1-0.1,0.1-0.1l-1.9-5.2c0-0.1,0-0.2-0.1-0.2c-0.1,0-0.1,0.1-0.1,0.2l-1.9,5.2c0,0.1,0,0.1,0.1,0.1H530z"/>
		<path class="st1" d="M540.7,140.7c0.1-0.4,0.2-0.5,0.4-0.5s0.3,0.1,0.6,0.7l5.7,11.8l5.7-12c0.2-0.3,0.3-0.5,0.5-0.5
			c0.2,0,0.3,0.2,0.4,0.7l1.9,13c0.2,1.3,0.4,1.9,1,2.1c0.6,0.2,1,0.2,1.3,0.2c0.2,0,0.3,0,0.3,0.1c0,0.2-0.3,0.2-0.5,0.2
			c-0.5,0-3.4-0.1-4.3-0.1c-0.5,0-0.6-0.1-0.6-0.2c0-0.1,0.1-0.2,0.2-0.2c0.1,0,0.2-0.3,0.1-0.9l-1.3-9.2h-0.1l-4.6,9.5
			c-0.5,1-0.6,1.2-0.8,1.2c-0.2,0-0.4-0.4-0.7-1c-0.5-1-2.2-4.2-2.4-4.8c-0.2-0.4-1.4-3.1-2.2-4.7h-0.1l-1.1,8.4
			c0,0.4-0.1,0.7-0.1,1c0,0.4,0.3,0.6,0.6,0.7c0.4,0.1,0.7,0.1,0.9,0.1c0.2,0,0.3,0,0.3,0.1c0,0.2-0.2,0.2-0.5,0.2
			c-0.9,0-1.8-0.1-2.2-0.1c-0.4,0-1.4,0.1-2.1,0.1c-0.2,0-0.4,0-0.4-0.2c0-0.1,0.1-0.1,0.3-0.1c0.2,0,0.3,0,0.6-0.1
			c0.6-0.1,0.8-0.9,0.9-1.7L540.7,140.7z"/>
		<path class="st1" d="M562.9,151c-0.1,0-0.1,0-0.2,0.2l-1.1,3c-0.2,0.5-0.3,1-0.3,1.3c0,0.4,0.2,0.7,0.8,0.7h0.3
			c0.3,0,0.3,0,0.3,0.2c0,0.2-0.1,0.2-0.4,0.2c-0.7,0-1.6-0.1-2.2-0.1c-0.2,0-1.4,0.1-2.5,0.1c-0.3,0-0.4,0-0.4-0.2
			c0-0.1,0.1-0.2,0.3-0.2c0.2,0,0.5,0,0.7,0c1-0.1,1.4-0.8,1.8-1.9l5.3-13.2c0.3-0.6,0.4-0.8,0.6-0.8c0.2,0,0.3,0.2,0.5,0.7
			c0.5,1.2,3.9,9.7,5.2,12.9c0.8,1.9,1.4,2.2,1.8,2.3c0.3,0.1,0.6,0.1,0.9,0.1c0.2,0,0.3,0,0.3,0.2c0,0.2-0.2,0.2-1,0.2
			c-0.8,0-2.3,0-4,0c-0.4,0-0.6,0-0.6-0.2c0-0.1,0.1-0.2,0.3-0.2c0.1,0,0.3-0.2,0.2-0.5l-1.7-4.5c0-0.1-0.1-0.1-0.2-0.1H562.9z
			 M567.2,150c0.1,0,0.1-0.1,0.1-0.1l-1.9-5.2c0-0.1,0-0.2-0.1-0.2c-0.1,0-0.1,0.1-0.1,0.2l-1.9,5.2c0,0.1,0,0.1,0.1,0.1H567.2z"/>
		<path class="st1" d="M577.9,153.6c0,1.6,0.3,2.2,0.7,2.3c0.4,0.1,0.8,0.1,1.1,0.1c0.2,0,0.4,0,0.4,0.2c0,0.2-0.2,0.2-0.5,0.2
			c-1.4,0-2.2-0.1-2.6-0.1c-0.2,0-1.2,0.1-2.3,0.1c-0.3,0-0.5,0-0.5-0.2c0-0.1,0.1-0.2,0.3-0.2c0.3,0,0.7,0,0.9-0.1
			c0.5-0.2,0.6-0.8,0.7-2.6l0.2-12.4c0-0.4,0.1-0.7,0.3-0.7c0.2,0,0.4,0.3,0.8,0.7c0.3,0.3,3.4,3.7,6.5,6.7c1.4,1.4,4.3,4.5,4.6,4.8
			h0.1l-0.2-9.4c0-1.3-0.2-1.7-0.7-1.9c-0.3-0.1-0.8-0.1-1.1-0.1c-0.3,0-0.3-0.1-0.3-0.2c0-0.2,0.2-0.2,0.5-0.2
			c1.1,0,2.1,0.1,2.5,0.1c0.2,0,1-0.1,2.1-0.1c0.3,0,0.5,0,0.5,0.2c0,0.1-0.1,0.2-0.4,0.2c-0.2,0-0.4,0-0.6,0.1
			c-0.6,0.2-0.8,0.6-0.8,1.8l-0.2,13.2c0,0.5-0.1,0.7-0.3,0.7c-0.2,0-0.5-0.2-0.7-0.5c-1.3-1.3-4-4-6.2-6.2c-2.3-2.3-4.6-4.9-5-5.3
			h-0.1L577.9,153.6z"/>
		<path class="st1" d="M599.4,141.8l-3.1,0.1c-1.2,0-1.7,0.1-2,0.6c-0.2,0.3-0.3,0.6-0.4,0.7s-0.1,0.3-0.2,0.3
			c-0.1,0-0.2-0.1-0.2-0.3c0-0.3,0.4-2.2,0.4-2.4c0.1-0.3,0.1-0.4,0.3-0.4c0.2,0,0.4,0.2,0.9,0.3c0.6,0.1,1.4,0.1,2.1,0.1h8.3
			c0.7,0,1.1-0.1,1.4-0.1c0.3-0.1,0.5-0.1,0.6-0.1c0.1,0,0.2,0.1,0.2,0.4c0,0.4-0.1,1.9-0.1,2.4c0,0.2-0.1,0.3-0.2,0.3
			c-0.2,0-0.2-0.1-0.2-0.4l0-0.2c0-0.5-0.6-1.1-2.5-1.2l-2.6-0.1v8.6c0,1.9,0,3.6,0.1,4.5c0.1,0.6,0.2,1.1,0.8,1.1
			c0.3,0,0.8,0.1,1.1,0.1c0.2,0,0.3,0.1,0.3,0.2c0,0.1-0.2,0.2-0.4,0.2c-1.4,0-2.7-0.1-3.3-0.1c-0.5,0-1.8,0.1-2.6,0.1
			c-0.3,0-0.4-0.1-0.4-0.2c0-0.1,0.1-0.2,0.3-0.2c0.3,0,0.6,0,0.8-0.1c0.4-0.1,0.5-0.5,0.6-1.2c0.1-0.9,0.1-2.5,0.1-4.5V141.8z"/>
		<path class="st1" d="M611.6,146.7c0-3.2,0-3.8,0-4.5c0-0.7-0.2-1.1-0.9-1.2c-0.2,0-0.5-0.1-0.8-0.1c-0.2,0-0.4,0-0.4-0.2
			s0.1-0.2,0.5-0.2c0.6,0,1.2,0,1.7,0c0.5,0,1,0,1.3,0c0.7,0,4.8,0,5.2,0c0.4,0,0.7-0.1,0.9-0.1c0.1,0,0.2-0.1,0.3-0.1
			c0.1,0,0.1,0.1,0.1,0.2c0,0.1-0.1,0.4-0.2,1.4c0,0.2-0.1,1.1-0.1,1.4c0,0.1-0.1,0.2-0.2,0.2c-0.1,0-0.2-0.1-0.2-0.3
			c0-0.1,0-0.5-0.1-0.8c-0.1-0.4-0.4-0.6-1.4-0.8c-0.4,0-2.6-0.1-3-0.1c-0.1,0-0.1,0.1-0.1,0.2v5.3c0,0.1,0,0.2,0.1,0.2
			c0.5,0,2.9,0,3.4,0c0.5,0,0.8-0.1,1-0.3c0.1-0.2,0.2-0.3,0.3-0.3c0.1,0,0.1,0,0.1,0.2s-0.1,0.5-0.2,1.5c0,0.4-0.1,1.3-0.1,1.4
			c0,0.2,0,0.4-0.2,0.4c-0.1,0-0.2-0.1-0.2-0.2c0-0.2,0-0.5-0.1-0.8c-0.1-0.4-0.4-0.7-1.2-0.8c-0.4,0-2.5-0.1-3-0.1
			c-0.1,0-0.1,0.1-0.1,0.2v1.7c0,0.7,0,2.6,0,3.3c0,1.4,0.4,1.8,2.5,1.8c0.5,0,1.4,0,2-0.3s0.8-0.7,0.9-1.6c0-0.2,0.1-0.3,0.2-0.3
			c0.2,0,0.2,0.2,0.2,0.4c0,0.5-0.2,1.9-0.3,2.3c-0.1,0.5-0.3,0.5-1.1,0.5c-1.6,0-2.7,0-3.6-0.1c-0.9,0-1.6-0.1-2.2-0.1
			c-0.2,0-0.7,0-1.2,0c-0.5,0-1,0-1.4,0c-0.3,0-0.4-0.1-0.4-0.2c0-0.1,0.1-0.2,0.3-0.2c0.3,0,0.6,0,0.8-0.1c0.4-0.1,0.5-0.5,0.6-1.2
			c0.1-0.9,0.1-2.5,0.1-4.5V146.7z"/>
		<path class="st1" d="M623.7,156.2c-0.3-0.1-0.4-0.3-0.4-0.7c0-1.2,0.1-2.4,0.1-2.8c0-0.3,0.1-0.5,0.3-0.5c0.2,0,0.2,0.2,0.2,0.4
			c0,0.3,0.1,0.7,0.2,1.1c0.5,1.6,1.7,2.1,3,2.1c1.9,0,2.8-1.3,2.8-2.4c0-1-0.3-2-2.1-3.4l-1-0.8c-2.3-1.8-3.1-3.3-3.1-5
			c0-2.3,1.9-4,4.9-4c1.4,0,2.2,0.2,2.8,0.4c0.2,0,0.3,0.1,0.3,0.3c0,0.3-0.1,0.9-0.1,2.5c0,0.5-0.1,0.6-0.2,0.6
			c-0.1,0-0.2-0.1-0.2-0.4c0-0.2-0.1-0.8-0.5-1.4c-0.3-0.4-0.9-1-2.3-1c-1.6,0-2.5,0.9-2.5,2.2c0,1,0.5,1.7,2.2,3l0.6,0.4
			c2.5,1.9,3.4,3.4,3.4,5.4c0,1.2-0.5,2.7-2,3.7c-1,0.7-2.2,0.9-3.3,0.9C625.5,156.8,624.6,156.6,623.7,156.2z"/>
		<path class="st1" d="M643.4,146.7c0-3.2,0-3.8,0-4.5c0-0.7-0.2-1.1-0.9-1.2c-0.2,0-0.5-0.1-0.8-0.1c-0.2,0-0.4,0-0.4-0.2
			s0.1-0.2,0.5-0.2c1.1,0,2.4,0.1,3,0.1c0.7,0,2-0.1,3.2-0.1c2.6,0,6.1,0,8.4,2.4c1,1.1,2,2.8,2,5.3c0,2.6-1.1,4.7-2.3,5.9
			c-1,1-3.1,2.5-7,2.5c-0.8,0-1.6-0.1-2.4-0.1s-1.5-0.1-2.1-0.1c-0.2,0-0.7,0-1.2,0c-0.5,0-1,0-1.4,0c-0.3,0-0.4-0.1-0.4-0.2
			c0-0.1,0.1-0.2,0.3-0.2c0.3,0,0.6,0,0.8-0.1c0.4-0.1,0.5-0.5,0.6-1.2c0.1-0.9,0.1-2.5,0.1-4.5V146.7z M646,149c0,2.2,0,3.8,0,4.2
			c0,0.5,0.1,1.4,0.2,1.6c0.3,0.4,1.1,0.8,2.8,0.8c2.1,0,3.6-0.4,4.8-1.5c1.3-1.2,1.8-3.1,1.8-5.2c0-2.7-1.1-4.4-2-5.2
			c-1.9-1.8-4.3-2.1-6-2.1c-0.4,0-1.2,0.1-1.4,0.1c-0.2,0.1-0.3,0.2-0.3,0.4c0,0.7,0,2.5,0,4.2V149z"/>
		<path class="st1" d="M662.8,146.7c0-3.2,0-3.8,0-4.5c0-0.7-0.2-1.1-0.9-1.2c-0.2,0-0.5-0.1-0.8-0.1c-0.2,0-0.4,0-0.4-0.2
			s0.1-0.2,0.5-0.2c0.6,0,1.2,0,1.7,0c0.5,0,1,0,1.3,0c0.7,0,4.9,0,5.3,0c0.4,0,0.7-0.1,0.9-0.1c0.1,0,0.2-0.1,0.3-0.1
			s0.1,0.1,0.1,0.2c0,0.1-0.1,0.4-0.2,1.4c0,0.2-0.1,1.1-0.1,1.4c0,0.1-0.1,0.2-0.2,0.2c-0.1,0-0.2-0.1-0.2-0.3c0-0.1,0-0.5-0.1-0.8
			c-0.1-0.4-0.4-0.6-1.4-0.8c-0.4,0-2.6-0.1-3-0.1c-0.1,0-0.1,0.1-0.1,0.2v5.3c0,0.1,0,0.2,0.1,0.2c0.5,0,2.9,0,3.4,0
			c0.5,0,0.8-0.1,1-0.3c0.1-0.2,0.2-0.3,0.3-0.3c0.1,0,0.1,0,0.1,0.2s-0.1,0.5-0.2,1.5c0,0.4-0.1,1.3-0.1,1.4c0,0.2,0,0.4-0.2,0.4
			c-0.1,0-0.2-0.1-0.2-0.2c0-0.2,0-0.5-0.1-0.8c-0.1-0.4-0.4-0.7-1.2-0.8c-0.4,0-2.5-0.1-3-0.1c-0.1,0-0.1,0.1-0.1,0.2v1.7
			c0,0.7,0,2.6,0,3.3c0,1.4,0.4,1.8,2.5,1.8c0.5,0,1.4,0,2-0.3s0.8-0.7,0.9-1.6c0-0.2,0.1-0.3,0.2-0.3c0.2,0,0.2,0.2,0.2,0.4
			c0,0.5-0.2,1.9-0.3,2.3c-0.1,0.5-0.3,0.5-1.1,0.5c-1.6,0-2.7,0-3.6-0.1c-0.9,0-1.6-0.1-2.2-0.1c-0.2,0-0.7,0-1.2,0
			c-0.5,0-1,0-1.4,0c-0.3,0-0.4-0.1-0.4-0.2c0-0.1,0.1-0.2,0.3-0.2c0.3,0,0.6,0,0.8-0.1c0.4-0.1,0.5-0.5,0.6-1.2
			c0.1-0.9,0.1-2.5,0.1-4.5V146.7z"/>
		<path class="st1" d="M683.2,151c-0.1,0-0.1,0-0.2,0.2l-1.1,3c-0.2,0.5-0.3,1-0.3,1.3c0,0.4,0.2,0.7,0.8,0.7h0.3
			c0.3,0,0.3,0,0.3,0.2c0,0.2-0.1,0.2-0.4,0.2c-0.7,0-1.6-0.1-2.2-0.1c-0.2,0-1.4,0.1-2.5,0.1c-0.3,0-0.4,0-0.4-0.2
			c0-0.1,0.1-0.2,0.3-0.2c0.2,0,0.5,0,0.7,0c1-0.1,1.4-0.8,1.8-1.9l5.3-13.2c0.3-0.6,0.4-0.8,0.6-0.8c0.2,0,0.3,0.2,0.5,0.7
			c0.5,1.2,3.9,9.7,5.2,12.9c0.8,1.9,1.4,2.2,1.8,2.3c0.3,0.1,0.6,0.1,0.9,0.1c0.2,0,0.3,0,0.3,0.2c0,0.2-0.2,0.2-1,0.2
			c-0.8,0-2.3,0-4,0c-0.4,0-0.6,0-0.6-0.2c0-0.1,0.1-0.2,0.3-0.2c0.1,0,0.3-0.2,0.2-0.5l-1.7-4.5c0-0.1-0.1-0.1-0.2-0.1H683.2z
			 M687.5,150c0.1,0,0.1-0.1,0.1-0.1l-1.9-5.2c0-0.1,0-0.2-0.1-0.2s-0.1,0.1-0.1,0.2l-1.9,5.2c0,0.1,0,0.1,0.1,0.1H687.5z"/>
		<path class="st1" d="M698.2,153.6c0,1.6,0.3,2.2,0.7,2.3c0.4,0.1,0.8,0.1,1.1,0.1c0.2,0,0.4,0,0.4,0.2c0,0.2-0.2,0.2-0.5,0.2
			c-1.4,0-2.2-0.1-2.6-0.1c-0.2,0-1.2,0.1-2.3,0.1c-0.3,0-0.5,0-0.5-0.2c0-0.1,0.1-0.2,0.3-0.2c0.3,0,0.7,0,0.9-0.1
			c0.5-0.2,0.6-0.8,0.7-2.6l0.2-12.4c0-0.4,0.1-0.7,0.3-0.7c0.2,0,0.4,0.3,0.8,0.7c0.3,0.3,3.4,3.7,6.5,6.7c1.4,1.4,4.3,4.5,4.6,4.8
			h0.1l-0.2-9.4c0-1.3-0.2-1.7-0.7-1.9c-0.3-0.1-0.8-0.1-1.1-0.1c-0.3,0-0.3-0.1-0.3-0.2c0-0.2,0.2-0.2,0.5-0.2
			c1.1,0,2.1,0.1,2.5,0.1c0.2,0,1-0.1,2.1-0.1c0.3,0,0.5,0,0.5,0.2c0,0.1-0.1,0.2-0.4,0.2c-0.2,0-0.4,0-0.6,0.1
			c-0.6,0.2-0.8,0.6-0.8,1.8l-0.2,13.2c0,0.5-0.1,0.7-0.3,0.7c-0.2,0-0.5-0.2-0.7-0.5c-1.3-1.3-4-4-6.2-6.2c-2.3-2.3-4.6-4.9-5-5.3
			H698L698.2,153.6z"/>
		<path class="st1" d="M729.5,155.1c0,0.6,0,0.6-0.3,0.8c-1.4,0.7-3.4,0.9-5.1,0.9c-5.1,0-9.7-2.4-9.7-8.2c0-3.4,1.7-5.7,3.7-6.9
			c2-1.2,3.9-1.4,5.6-1.4c1.4,0,3.3,0.3,3.7,0.3c0.4,0.1,1.2,0.2,1.7,0.2c0.3,0,0.3,0.1,0.3,0.3c0,0.2-0.1,0.8-0.1,3.4
			c0,0.3-0.1,0.4-0.2,0.4c-0.1,0-0.2-0.1-0.2-0.3c-0.1-0.5-0.2-1.2-0.7-1.7c-0.6-0.7-2.3-1.6-4.7-1.6c-1.2,0-2.7,0.1-4.2,1.3
			c-1.2,1-1.9,2.6-1.9,5.1c0,4.5,2.9,7.9,7.3,7.9c0.5,0,1.3,0,1.8-0.2c0.3-0.1,0.4-0.4,0.4-0.8v-2c0-1,0-1.8,0-2.5
			c0-0.7-0.2-1-0.9-1.2c-0.2,0-0.5-0.1-0.8-0.1c-0.2,0-0.3,0-0.3-0.2c0-0.2,0.1-0.2,0.4-0.2c1.1,0,2.4,0.1,3,0.1
			c0.7,0,1.8-0.1,2.5-0.1c0.3,0,0.4,0,0.4,0.2c0,0.1-0.1,0.2-0.3,0.2c-0.2,0-0.3,0-0.6,0.1c-0.6,0.1-0.8,0.5-0.8,1.2
			c0,0.6,0,1.5,0,2.5V155.1z"/>
		<path class="st1" d="M733.1,148.5c0-3.6,2.4-8.2,8.7-8.2c5.2,0,8.5,3,8.5,7.9c0,4.8-3.4,8.6-8.7,8.6
			C735.5,156.8,733.1,152.3,733.1,148.5z M747.3,148.9c0-4.7-2.7-7.6-6.2-7.6c-2.4,0-5.2,1.3-5.2,6.6c0,4.4,2.4,7.8,6.4,7.8
			C743.9,155.7,747.3,155,747.3,148.9z"/>
		<path class="st1" d="M757.2,150.4c0,2.7,0,4.1,0.4,4.5c0.4,0.3,0.9,0.5,2.5,0.5c1.1,0,1.9,0,2.5-0.6c0.3-0.3,0.5-0.9,0.5-1.3
			c0-0.2,0.1-0.3,0.2-0.3c0.1,0,0.2,0.1,0.2,0.4c0,0.2-0.1,1.8-0.3,2.4c-0.1,0.5-0.2,0.6-1.3,0.6c-1.5,0-2.6,0-3.5-0.1
			c-0.9,0-1.7-0.1-2.6-0.1c-0.2,0-0.7,0-1.2,0c-0.5,0-1,0-1.4,0c-0.3,0-0.4-0.1-0.4-0.2c0-0.1,0.1-0.2,0.3-0.2c0.3,0,0.6,0,0.8-0.1
			c0.4-0.1,0.5-0.5,0.6-1.2c0.1-0.9,0.1-2.5,0.1-4.5v-3.7c0-3.2,0-3.8,0-4.5c0-0.7-0.2-1.1-0.9-1.2c-0.2,0-0.4-0.1-0.7-0.1
			c-0.2,0-0.4,0-0.4-0.2s0.1-0.2,0.5-0.2c1,0,2.3,0.1,2.9,0.1c0.5,0,2-0.1,2.9-0.1c0.3,0,0.4,0,0.4,0.2s-0.1,0.2-0.4,0.2
			c-0.2,0-0.6,0-0.8,0.1c-0.6,0.1-0.7,0.5-0.8,1.2c0,0.7,0,1.3,0,4.5V150.4z"/>
		<path class="st1" d="M768.6,151c-0.1,0-0.1,0-0.2,0.2l-1.1,3c-0.2,0.5-0.3,1-0.3,1.3c0,0.4,0.2,0.7,0.8,0.7h0.3
			c0.3,0,0.3,0,0.3,0.2c0,0.2-0.1,0.2-0.4,0.2c-0.7,0-1.6-0.1-2.2-0.1c-0.2,0-1.4,0.1-2.5,0.1c-0.3,0-0.4,0-0.4-0.2
			c0-0.1,0.1-0.2,0.3-0.2c0.2,0,0.5,0,0.7,0c1-0.1,1.4-0.8,1.8-1.9l5.3-13.2c0.3-0.6,0.4-0.8,0.6-0.8c0.2,0,0.3,0.2,0.5,0.7
			c0.5,1.2,3.9,9.7,5.2,12.9c0.8,1.9,1.4,2.2,1.8,2.3c0.3,0.1,0.6,0.1,0.9,0.1c0.2,0,0.3,0,0.3,0.2c0,0.2-0.2,0.2-1,0.2
			c-0.8,0-2.3,0-4,0c-0.4,0-0.6,0-0.6-0.2c0-0.1,0.1-0.2,0.3-0.2c0.1,0,0.3-0.2,0.2-0.5l-1.7-4.5c0-0.1-0.1-0.1-0.2-0.1H768.6z
			 M772.9,150c0.1,0,0.1-0.1,0.1-0.1l-1.9-5.2c0-0.1,0-0.2-0.1-0.2s-0.1,0.1-0.1,0.2l-1.9,5.2c0,0.1,0,0.1,0.1,0.1H772.9z"/>
		<path class="st1" d="M788.7,146.7c0-3.2,0-3.8,0-4.5c0-0.7-0.2-1.1-0.9-1.2c-0.2,0-0.5-0.1-0.8-0.1c-0.2,0-0.4,0-0.4-0.2
			s0.1-0.2,0.5-0.2c0.6,0,1.2,0,1.7,0c0.5,0,1,0,1.3,0c0.7,0,4.9,0,5.3,0c0.4,0,0.7-0.1,0.9-0.1c0.1,0,0.2-0.1,0.3-0.1
			s0.1,0.1,0.1,0.2c0,0.1-0.1,0.4-0.2,1.4c0,0.2-0.1,1.1-0.1,1.4c0,0.1-0.1,0.2-0.2,0.2c-0.1,0-0.2-0.1-0.2-0.3c0-0.1,0-0.5-0.1-0.8
			c-0.1-0.4-0.4-0.6-1.4-0.8c-0.4,0-2.6-0.1-3-0.1c-0.1,0-0.1,0.1-0.1,0.2v5.3c0,0.1,0,0.2,0.1,0.2c0.5,0,2.9,0,3.4,0
			c0.5,0,0.8-0.1,1-0.3c0.1-0.2,0.2-0.3,0.3-0.3c0.1,0,0.1,0,0.1,0.2s-0.1,0.5-0.2,1.5c0,0.4-0.1,1.3-0.1,1.4c0,0.2,0,0.4-0.2,0.4
			c-0.1,0-0.2-0.1-0.2-0.2c0-0.2,0-0.5-0.1-0.8c-0.1-0.4-0.4-0.7-1.2-0.8c-0.4,0-2.5-0.1-3-0.1c-0.1,0-0.1,0.1-0.1,0.2v1.7
			c0,0.7,0,2.6,0,3.3c0,1.4,0.4,1.8,2.5,1.8c0.5,0,1.4,0,2-0.3s0.8-0.7,0.9-1.6c0-0.2,0.1-0.3,0.2-0.3c0.2,0,0.2,0.2,0.2,0.4
			c0,0.5-0.2,1.9-0.3,2.3c-0.1,0.5-0.3,0.5-1.1,0.5c-1.6,0-2.7,0-3.6-0.1c-0.9,0-1.6-0.1-2.2-0.1c-0.2,0-0.7,0-1.2,0
			c-0.5,0-1,0-1.4,0c-0.3,0-0.4-0.1-0.4-0.2c0-0.1,0.1-0.2,0.3-0.2c0.3,0,0.6,0,0.8-0.1c0.4-0.1,0.5-0.5,0.6-1.2
			c0.1-0.9,0.1-2.5,0.1-4.5V146.7z"/>
		<path class="st1" d="M799.9,155.1c0-0.5,0.4-1.3,1.3-1.3c0.7,0,1.3,0.5,1.3,1.2s-0.5,1.3-1.3,1.3
			C800.3,156.4,799.9,155.7,799.9,155.1z"/>
		<path class="st1" d="M807.3,146.7c0-3.2,0-3.8,0-4.5c0-0.7-0.2-1.1-0.9-1.2c-0.2,0-0.5-0.1-0.8-0.1c-0.2,0-0.4,0-0.4-0.2
			s0.1-0.2,0.5-0.2c1.1,0,2.4,0.1,3,0.1c0.9,0,2.1-0.1,3-0.1c2.6,0,3.6,0.9,3.9,1.2c0.5,0.4,1,1.4,1,2.5c0,3-2.2,5.1-5.2,5.1
			c-0.1,0-0.3,0-0.4,0c-0.1,0-0.3,0-0.3-0.2c0-0.2,0.1-0.2,0.6-0.2c1.2,0,2.8-1.3,2.8-3.5c0-0.7-0.1-2.1-1.2-3.1
			c-0.8-0.7-1.6-0.8-2.1-0.8c-0.3,0-0.6,0-0.8,0.1c-0.1,0-0.2,0.2-0.2,0.4v8.4c0,1.9,0,3.6,0.1,4.5c0.1,0.6,0.2,1.1,0.8,1.1
			c0.3,0,0.8,0.1,1.1,0.1c0.2,0,0.3,0.1,0.3,0.2c0,0.1-0.2,0.2-0.4,0.2c-1.4,0-2.7-0.1-3.3-0.1c-0.5,0-1.8,0.1-2.6,0.1
			c-0.3,0-0.4-0.1-0.4-0.2c0-0.1,0.1-0.2,0.3-0.2c0.3,0,0.6,0,0.8-0.1c0.4-0.1,0.5-0.5,0.6-1.2c0.1-0.9,0.1-2.5,0.1-4.5V146.7z"/>
		<path class="st1" d="M816.2,155.1c0-0.5,0.4-1.3,1.3-1.3c0.7,0,1.3,0.5,1.3,1.2s-0.5,1.3-1.3,1.3
			C816.6,156.4,816.2,155.7,816.2,155.1z"/>
	</g>
	<path class="st1" d="M102.5,131V87.1H41.7C46.5,108.4,69.3,128.2,102.5,131 M102.5,70.8V26.4c-33.4,2.8-56.3,22.9-60.9,44.3h60.9
		V70.8z M118.9,26.4V131c37.5-3.2,61.8-28.1,61.8-52.3S156.4,29.6,118.9,26.4z M24.5,78.7c0-38.1,38.6-68.9,86.2-68.9
		s86.2,30.9,86.2,68.9c0,38.1-38.6,68.9-86.2,68.9S24.5,116.8,24.5,78.7z"/>
</g>
</svg>
